<svg id="SvgjsSvg1000" xmlns="http://www.w3.org/2000/svg" version="1.1" xmlns:xlink="http://www.w3.org/1999/xlink" xmlns:svgjs="http://svgjs.com/svgjs" width="24" height="17" viewBox="0 0 24 17"><title>Shape</title><desc>Created with Avocode.</desc><defs id="SvgjsDefs1001"></defs><path id="SvgjsPath1007" d="M17.07 14.02C16.39 14.02 15.76 13.879999999999999 15.15 13.66C15.15 13.66 14.66 18.05 10.99 18.02H5.49C3.27 18.02 1.9800000000000004 16.509999999999998 1.4900000000000002 14.02L-1 3.01C-1 1.9999999999999998 0.010000000000000009 1.9999999999999998 0.010000000000000009 1.9999999999999998H16.520000000000003C16.520000000000003 1.9999999999999998 17.540000000000003 1.9999999999999998 17.540000000000003 3.01L17.320000000000004 4.029999999999999C19.890000000000004 4.1899999999999995 21.970000000000006 6.329999999999999 22.000000000000004 8.98C22.030000000000005 11.75 19.840000000000003 13.99 17.070000000000004 14.02ZM15.59 11.64C16.03 11.88 16.52 12.020000000000001 17.04 12.020000000000001C18.71 11.990000000000002 20.03 10.650000000000002 20 8.98C19.84 6.5200000000000005 17.67 5.970000000000001 16.82 6.0200000000000005Z " fill="#c9cbcc" fill-opacity="1" transform="matrix(1,0,0,1,1,-2)"></path></svg>